<svg xmlns="http://www.w3.org/2000/svg" width="44" height="30" viewBox="0 0 44 30" fill="none">
  <path d="M0 0H42.9874V28.9756H0V0Z" fill="#026C34"/>
  <path d="M0 0.0244141H43.6636V9.84783H0V0.0244141Z" fill="#CD0E26"/>
  <path d="M0 19.3091H43.6636V29.1328H0V19.3091Z" fill="black"/>
  <path d="M0.00244141 9.84912H43.6636V19.3092H0.00244141V9.84912Z" fill="white"/>
  <path d="M19.7422 17.5003L19.9754 17.578C19.9786 17.5793 19.982 17.5802 19.9855 17.5806C19.9917 17.5804 19.9977 17.5782 20.0027 17.5744C20.0076 17.5706 20.0112 17.5653 20.0129 17.5593C20.0154 17.5522 20.015 17.5443 20.0118 17.5375C20.0085 17.5307 20.0027 17.5254 19.9955 17.5229L19.7611 17.4452C19.7576 17.444 19.7538 17.4435 19.7501 17.4437C19.7463 17.4439 19.7426 17.4448 19.7392 17.4465C19.7359 17.4481 19.7328 17.4504 19.7303 17.4532C19.7278 17.456 19.7259 17.4592 19.7247 17.4628C19.7232 17.4664 19.7226 17.4703 19.7227 17.4742C19.7228 17.478 19.7237 17.4819 19.7253 17.4854C19.727 17.4889 19.7293 17.492 19.7322 17.4946C19.7352 17.4972 19.7386 17.4991 19.7422 17.5003ZM20.0858 17.6045L20.3642 17.6785C20.3667 17.6798 20.3691 17.6798 20.3717 17.6798C20.3782 17.6798 20.3844 17.6775 20.3895 17.6734C20.3945 17.6693 20.398 17.6636 20.3993 17.6573C20.4043 17.6421 20.3942 17.6259 20.3792 17.6219L20.101 17.548C20.0858 17.5432 20.0697 17.5531 20.0658 17.5694C20.0607 17.5846 20.0708 17.6007 20.0858 17.6045ZM21.1938 17.7624L21.1951 17.7611L21.4809 17.7397C21.4972 17.7384 21.5097 17.7247 21.5071 17.7084C21.5071 17.6921 21.4921 17.6784 21.4771 17.6807L21.1912 17.7034C21.1873 17.7036 21.1835 17.7045 21.18 17.7062C21.1765 17.7078 21.1733 17.7102 21.1707 17.7131C21.1681 17.716 21.1662 17.7194 21.1649 17.7231C21.1637 17.7268 21.1633 17.7307 21.1636 17.7346C21.1637 17.7499 21.1776 17.7624 21.1938 17.7624ZM20.789 17.7485L21.0711 17.7611V17.7624C21.0749 17.7625 21.0788 17.7618 21.0824 17.7604C21.086 17.759 21.0894 17.7569 21.0921 17.7542C21.0949 17.7515 21.0972 17.7483 21.0987 17.7448C21.1003 17.7412 21.1011 17.7374 21.1011 17.7335C21.1011 17.7172 21.0886 17.7034 21.0735 17.7034L20.7927 17.6897H20.7902C20.775 17.6897 20.7625 17.702 20.7612 17.7185C20.7609 17.7223 20.7614 17.7262 20.7626 17.7298C20.7639 17.7335 20.7659 17.7368 20.7685 17.7396C20.7711 17.7425 20.7743 17.7447 20.7778 17.7462C20.7814 17.7478 20.7852 17.7485 20.789 17.7485ZM23.9064 17.5003L23.6732 17.578C23.6701 17.5796 23.6667 17.5805 23.6632 17.5806C23.6507 17.5806 23.6405 17.5718 23.6355 17.5593C23.6343 17.5557 23.6338 17.5519 23.6341 17.5481C23.6344 17.5443 23.6355 17.5405 23.6372 17.5372C23.6389 17.5338 23.6414 17.5307 23.6443 17.5283C23.6472 17.5258 23.6506 17.524 23.6542 17.5229L23.8886 17.4452C23.896 17.4428 23.904 17.4433 23.911 17.4466C23.918 17.4498 23.9235 17.4556 23.9264 17.4628C23.9286 17.4704 23.9277 17.4786 23.924 17.4856C23.9203 17.4926 23.9139 17.4979 23.9064 17.5003ZM23.5628 17.6045L23.287 17.6785C23.2834 17.6798 23.2821 17.6798 23.2795 17.6798C23.2655 17.6798 23.2544 17.671 23.2495 17.6573C23.2481 17.6496 23.2497 17.6417 23.2539 17.6351C23.2581 17.6286 23.2646 17.6239 23.2722 17.6219L23.5483 17.548C23.5521 17.5468 23.5561 17.5465 23.56 17.547C23.564 17.5475 23.5678 17.5487 23.5712 17.5508C23.5746 17.5528 23.5776 17.5554 23.58 17.5586C23.5823 17.5619 23.584 17.5655 23.5849 17.5694C23.5865 17.577 23.5851 17.5849 23.581 17.5914C23.5769 17.598 23.5704 17.6027 23.5628 17.6045ZM22.4572 17.7624H22.4547L22.169 17.7397C22.1514 17.7384 22.1401 17.7247 22.1413 17.7084C22.1426 17.6921 22.1576 17.6784 22.1738 17.6807L22.4584 17.7034C22.4748 17.7047 22.4871 17.7185 22.4846 17.7346C22.4847 17.7382 22.484 17.7418 22.4827 17.7452C22.4813 17.7486 22.4793 17.7517 22.4768 17.7543C22.4742 17.7569 22.4712 17.7589 22.4678 17.7603C22.4645 17.7617 22.4609 17.7624 22.4572 17.7624ZM22.861 17.7485L22.5788 17.7611L22.5772 17.7624C22.5696 17.7621 22.5622 17.759 22.5567 17.7537C22.5511 17.7484 22.5478 17.7412 22.5472 17.7335C22.5472 17.7172 22.5597 17.7034 22.5761 17.7034L22.8585 17.6897C22.8749 17.6897 22.8885 17.702 22.8885 17.7185C22.8887 17.7348 22.8759 17.7485 22.861 17.7485ZM21.8318 15.7179H21.8331H21.8344C23.163 14.591 23.0966 13.1408 23.0966 13.1258C23.0966 13.1108 23.0843 13.0994 23.0689 13.0981C22.3596 13.0617 21.8956 12.7798 21.8331 12.7396C21.7703 12.7797 21.3066 13.0617 20.5973 13.0981C20.5821 13.0994 20.5696 13.1108 20.5696 13.1258C20.5684 13.1406 20.5032 14.5912 21.8318 15.7179ZM21.3529 13.0194C21.595 12.9404 21.7604 12.8501 21.8331 12.8075C21.9045 12.8501 22.0712 12.9404 22.3118 13.0194V15.1351C22.1688 15.3185 22.0085 15.4877 21.8331 15.6404C21.6577 15.4872 21.497 15.3181 21.3529 15.1351V13.0194Z" fill="#BF920C"/>
  <path d="M24.8211 12.2985C24.7984 12.0115 24.6983 11.8849 24.6933 11.8798C24.6898 11.8749 24.31 11.4624 23.6804 11.8824C23.2617 12.1631 22.8695 12.217 22.6689 12.2232C22.6149 12.1342 22.5524 11.9976 22.5069 11.7934C22.4094 11.3484 22.447 10.8207 22.447 10.8132C22.447 10.8083 22.447 10.3783 22.0783 10.2818C21.8912 10.2341 21.7811 10.2129 21.7095 10.2129C21.6493 10.2129 21.6092 10.2292 21.5816 10.2629C21.491 10.2323 21.3963 10.2158 21.3008 10.214C21.1779 10.214 21.0878 10.2477 21.0301 10.3168C20.9662 10.3944 20.9473 10.5135 20.9775 10.6702C20.9801 10.6828 20.9876 10.6915 20.9988 10.694C21.0044 10.6953 21.0103 10.695 21.0158 10.6933C21.0213 10.6915 21.0263 10.6883 21.0301 10.684C21.0301 10.6827 21.1054 10.59 21.1981 10.59C21.2909 10.59 21.3761 10.6865 21.4464 10.8671C21.5943 11.2469 21.2107 11.9161 21.0103 12.2245C20.8146 12.2195 20.4136 12.1706 19.9849 11.8837C19.3557 11.4624 18.9759 11.8749 18.972 11.8798C18.9671 11.8849 18.8656 12.0115 18.8442 12.2985C18.8215 12.5781 18.6248 17.5856 18.6235 17.6356C18.6228 17.6412 18.6239 17.647 18.6266 17.6519C18.6293 17.6569 18.6336 17.6609 18.6387 17.6633C18.6426 17.6653 18.6468 17.6666 18.6512 17.6669C18.6585 17.6671 18.6657 17.6644 18.6711 17.6594L20.3395 16.1652L20.2805 16.3709C20.273 16.377 20.2717 16.3859 20.273 16.3945L19.9873 17.3798C19.9436 17.3694 19.9008 17.3555 19.8593 17.3384C19.829 17.3244 19.7962 17.3167 19.7628 17.3156C19.7439 17.3149 19.725 17.3185 19.7077 17.3261C19.6903 17.3337 19.6749 17.345 19.6625 17.3593C19.6236 17.3568 19.5108 17.3568 19.4405 17.4372C19.3779 17.506 19.3653 17.6137 19.4031 17.7567C19.4031 17.7604 19.4057 17.7631 19.4094 17.7668C19.4031 17.7844 19.3967 17.8021 19.3955 17.8221C19.3202 17.847 19.0947 17.9322 19.0947 18.0739C19.0947 18.0766 19.0671 18.3023 19.2751 18.4235C19.2664 18.4574 19.2588 18.5201 19.2927 18.5853C19.3416 18.6768 19.4557 18.7382 19.6286 18.7684C19.7264 18.7847 19.8117 18.801 19.8943 18.8173C20.1827 18.8724 20.4307 18.92 20.9799 18.9338C21.3083 18.9425 21.6066 18.9438 21.8323 18.9448C22.1163 18.9436 22.4004 18.9399 22.6844 18.9338C23.2338 18.9199 23.4816 18.8722 23.7702 18.816C23.8531 18.801 23.9381 18.7847 24.0358 18.7669C24.2087 18.738 24.3229 18.6768 24.372 18.5838C24.4058 18.5199 24.3969 18.4573 24.3894 18.4234C24.5973 18.3018 24.5698 18.0762 24.5698 18.0738C24.5698 17.9308 24.3442 17.8469 24.2689 17.8219C24.2662 17.8031 24.2616 17.7846 24.2552 17.7666C24.2577 17.7631 24.2612 17.7604 24.2612 17.7566C24.2988 17.6125 24.2863 17.5059 24.2237 17.437C24.1537 17.3568 24.0406 17.3568 24.002 17.3592C23.9897 17.3447 23.9743 17.3331 23.9569 17.3253C23.9395 17.3175 23.9206 17.3137 23.9015 17.3141C23.8726 17.3141 23.84 17.3231 23.805 17.3379C23.7631 17.3552 23.7198 17.369 23.6756 17.3793L23.3915 16.394C23.3915 16.3853 23.3915 16.3765 23.3837 16.3704L23.325 16.1648L24.9929 17.6577C24.998 17.6624 25.0048 17.6651 25.0118 17.6652C25.0151 17.6652 25.0207 17.6652 25.0242 17.6626C25.0295 17.6602 25.0338 17.6563 25.0368 17.6514C25.0397 17.6464 25.0411 17.6407 25.0407 17.635C25.0405 17.5856 24.8438 12.5779 24.8211 12.2985ZM21.8254 10.4408C21.8345 10.4406 21.8436 10.4422 21.8522 10.4456C21.8607 10.449 21.8684 10.4541 21.8749 10.4605C21.8814 10.467 21.8866 10.4746 21.8901 10.4831C21.8936 10.4915 21.8954 10.5006 21.8954 10.5098C21.8952 10.5282 21.8877 10.5458 21.8746 10.5587C21.8615 10.5716 21.8438 10.5789 21.8254 10.5788C21.8073 10.5786 21.79 10.5712 21.7773 10.5582C21.7646 10.5453 21.7576 10.5279 21.7576 10.5098C21.7576 10.471 21.7878 10.4408 21.8254 10.4408ZM21.5044 10.8559C21.5271 10.8207 21.5871 10.7643 21.7225 10.8433C21.7225 10.8433 21.6423 10.555 21.3252 10.4334C21.1472 10.3658 21.0733 10.4396 21.0419 10.5173C21.0494 10.4583 21.0784 10.3781 21.1786 10.3695C21.339 10.3557 21.4067 10.4046 21.4067 10.4046C21.4067 10.4046 21.6023 10.5713 21.7201 10.5713C21.7201 10.5713 21.7527 10.6553 21.8391 10.6414C21.9256 10.6264 21.928 10.5576 21.928 10.5576C21.928 10.5576 22.0636 10.4134 22.3294 10.5588C22.3867 10.6792 22.3882 10.8032 22.3882 10.8108C22.3867 10.8158 22.3493 11.3524 22.4497 11.8062C22.5099 12.0794 22.5999 12.2398 22.6656 12.3263L22.4121 12.2461C22.4096 12.2435 22.4096 12.2397 22.4059 12.2373C22.3597 12.1997 22.2567 11.7397 22.1852 11.3172C22.1839 11.3096 22.1796 11.3028 22.1733 11.2984C22.1669 11.2939 22.1591 11.2921 22.1515 11.2934C22.1363 11.2959 22.1237 11.311 22.1279 11.3273C22.1603 11.5203 22.2667 12.1169 22.3519 12.2585C22.3493 12.2649 22.3493 12.2721 22.3519 12.2785C22.3922 12.3651 22.3922 12.4039 22.3922 12.4164C22.2968 12.3951 22.1237 12.2772 22.0561 12.2259C22.0223 12.1545 22.0007 11.6142 21.9959 11.2846C21.9958 11.2767 21.9926 11.2691 21.987 11.2635C21.9814 11.2578 21.9738 11.2546 21.9658 11.2546C21.9487 11.2558 21.9358 11.2683 21.9358 11.2846C21.9384 11.4238 21.9521 12.0867 21.9986 12.2384L21.8455 12.3939L21.7202 12.2171C21.808 12.053 21.8557 11.3522 21.8607 11.2696C21.8607 11.2533 21.8481 11.2383 21.8331 11.2383C21.8179 11.2395 21.803 11.2496 21.8005 11.2657C21.7805 11.5954 21.7278 12.1131 21.665 12.1983L21.3743 12.4089L21.4318 12.2032C21.5873 11.9902 21.6877 11.3059 21.6913 11.2757C21.6919 11.2718 21.6917 11.2678 21.6908 11.264C21.6898 11.2602 21.6882 11.2566 21.6858 11.2535C21.6835 11.2504 21.6806 11.2477 21.6772 11.2457C21.6738 11.2437 21.6701 11.2423 21.6662 11.2418C21.6512 11.2405 21.6351 11.2506 21.6325 11.2669C21.6025 11.4775 21.4996 12.0403 21.3743 12.1831C21.2891 12.2783 21.0974 12.336 20.9919 12.3611C21.1511 12.1293 21.6737 11.3207 21.5044 10.8559ZM20.3325 16.4011L20.6546 16.089L20.755 16.4562C20.7575 16.4676 20.7661 16.4751 20.7775 16.4775C20.7876 16.4802 20.7989 16.4749 20.8051 16.4674L21.0383 16.1777L21.1461 16.6828L20.9018 17.0439L20.7764 16.6815C20.7747 16.6763 20.7716 16.6717 20.7674 16.6682C20.7632 16.6646 20.7581 16.6623 20.7527 16.6615C20.7414 16.6603 20.73 16.6652 20.7251 16.6742L20.4894 17.0214L20.324 16.4348L20.3325 16.4011ZM23.0376 17.5079C23.0211 17.5116 23.0114 17.5129 23.0114 17.5129C23.0013 17.5142 22.9938 17.5155 22.9861 17.5167L22.8332 17.2558C22.827 17.2457 22.8159 17.2408 22.8031 17.2408C22.7931 17.2421 22.7832 17.2508 22.7795 17.2622L22.693 17.5493C22.6221 17.555 22.551 17.5583 22.4799 17.5594L22.4046 17.2248L22.5023 16.762L22.748 17.1256C22.7514 17.1299 22.7558 17.1334 22.7609 17.1356C22.7659 17.1378 22.7714 17.1387 22.7769 17.1382C22.7822 17.1376 22.7873 17.1355 22.7914 17.1321C22.7956 17.1288 22.7988 17.1244 22.8006 17.1193L22.9257 16.7558L23.154 17.0955L23.0376 17.5079ZM23.1965 17.1594L23.3899 17.444C23.2795 17.4666 23.174 17.4854 23.1013 17.4979L23.1965 17.1594ZM22.922 17.5255C22.8655 17.5319 22.8107 17.5393 22.7554 17.5444L22.8154 17.3438L22.922 17.5255ZM20.8865 17.2623C20.8845 17.257 20.8811 17.2522 20.8768 17.2484C20.8724 17.2447 20.8672 17.2421 20.8615 17.2409C20.8558 17.2408 20.8502 17.2421 20.8451 17.2447C20.8401 17.2474 20.8358 17.2512 20.8326 17.256L20.6797 17.5169C20.6714 17.5154 20.663 17.5141 20.6546 17.5131L20.6284 17.5094L20.5118 17.0958L20.7399 16.7561L20.8654 17.1197C20.8679 17.1297 20.8778 17.1372 20.889 17.1385C20.8945 17.139 20.9001 17.1382 20.9051 17.136C20.9102 17.1337 20.9146 17.1303 20.9179 17.1259L21.1635 16.7635L21.2613 17.225L21.1861 17.5596C21.1149 17.5586 21.0438 17.5552 20.9729 17.5495L20.8865 17.2623ZM20.9104 17.5445C20.8551 17.5396 20.8002 17.5334 20.7436 17.5257L20.8502 17.344L20.9104 17.5445ZM20.5645 17.498C20.4682 17.4814 20.372 17.4638 20.2761 17.4453L20.4678 17.1594L20.5645 17.498ZM21.2112 15.2555C21.2712 15.3321 21.3377 15.4085 21.4079 15.4837L21.1083 15.8634L21.0582 15.4008L21.2112 15.2555ZM21.0494 15.3271L21.0121 14.9761C21.061 15.0537 21.1159 15.1315 21.1762 15.2092L21.0494 15.3271ZM21.4481 15.5275C21.497 15.5775 21.5498 15.6277 21.6036 15.6777L21.4945 16.1667L21.487 16.1767L21.3304 15.6766L21.4481 15.5275ZM21.2088 16.6957L21.4606 16.3221L21.2914 17.0855L21.2088 16.6957ZM21.2903 17.364L21.3917 17.4993L21.5736 17.3601L21.7428 16.1569L21.6827 17.3565L21.8331 17.5659V17.5672V17.5647L21.9834 17.3565L21.9232 16.1569L22.0913 17.3601L22.2742 17.498L22.3749 17.364L22.4196 17.5596C22.3394 17.5583 22.2779 17.5533 22.233 17.5508C22.1894 17.5471 22.1619 17.5445 22.1418 17.5471C22.0938 17.5535 22.0539 17.5784 22.0315 17.6172C22.0194 17.6383 22.0125 17.662 22.0115 17.6863H21.6555C21.6542 17.662 21.6474 17.6384 21.6356 17.6172C21.6239 17.5978 21.6079 17.5815 21.5887 17.5694C21.5696 17.5574 21.5478 17.5501 21.5253 17.5481C21.5052 17.5445 21.4764 17.5468 21.4325 17.5508C21.3874 17.5544 21.3273 17.5583 21.2471 17.5596L21.2903 17.364ZM22.6076 15.401L22.5575 15.8635L22.2579 15.4839C22.3281 15.4086 22.3934 15.3322 22.4546 15.2557L22.6076 15.401ZM22.4896 15.209C22.5499 15.1312 22.6037 15.0536 22.6536 14.9759L22.6149 15.327L22.4896 15.209ZM22.3343 15.6768L22.1777 16.1769L22.1702 16.1668L22.0624 15.6779C22.1162 15.6279 22.1689 15.5777 22.2166 15.5277L22.3343 15.6768ZM22.2052 16.3221L22.457 16.6957L22.3743 17.0855L22.2052 16.3221ZM22.4748 16.6155L22.2188 16.2394L22.3792 15.7316L22.5571 15.9559C22.562 15.9634 22.5695 15.9673 22.5799 15.9673C22.5825 15.9673 22.5849 15.9673 22.5876 15.966C22.5932 15.9644 22.5983 15.9611 22.602 15.9567C22.6058 15.9522 22.6082 15.9467 22.6088 15.9409L22.6627 15.4508L22.9789 15.7491C22.9816 15.7516 22.9847 15.7536 22.9882 15.7549C22.9916 15.7562 22.9952 15.7568 22.9989 15.7566C23.0002 15.7566 23.0016 15.7566 23.0038 15.7554C23.0081 15.7546 23.0122 15.7529 23.0156 15.7503C23.0191 15.7477 23.0219 15.7443 23.0238 15.7403L23.0916 15.6037L23.2419 16.0713C23.2419 16.0751 23.2394 16.0789 23.2419 16.0826L23.2993 16.2868L23.0163 16.0109C23.0088 16.0048 22.9976 16.0008 22.9874 16.0048C22.9824 16.006 22.9778 16.0084 22.974 16.0119C22.9702 16.0154 22.9675 16.0199 22.966 16.0248L22.8695 16.3845L22.635 16.0924C22.6314 16.0882 22.6267 16.085 22.6214 16.0832C22.6161 16.0815 22.6105 16.0811 22.605 16.0823C22.5994 16.0834 22.5942 16.0861 22.5902 16.0902C22.5862 16.0942 22.5834 16.0994 22.5823 16.105L22.4748 16.6155ZM22.7228 14.8655C22.7504 14.8166 22.7782 14.7679 22.8057 14.719L23.0638 15.5226L22.9885 15.678L22.6702 15.3784L22.7242 14.8733C22.7255 14.8706 22.7228 14.8682 22.7228 14.8655ZM23.1163 15.4925L23.0588 14.1111C23.1018 13.9795 23.1315 13.8555 23.1553 13.7401L23.2619 15.9474L23.1163 15.4925ZM21.8329 15.7969C20.5004 14.7239 20.4916 13.2585 20.4991 13.0369C21.1295 13.0568 21.6725 12.7561 21.8329 12.6583C21.9932 12.7561 22.536 13.0557 23.1667 13.0369C23.1729 13.2588 23.1654 14.7239 21.8329 15.7969ZM20.9956 15.3783L20.6773 15.6779L20.602 15.5224L20.8603 14.7188C20.8865 14.7679 20.9141 14.8166 20.943 14.8653C20.943 14.8681 20.9405 14.8705 20.9405 14.8728L20.9956 15.3783ZM20.5105 13.7399C20.5343 13.8553 20.5645 13.9793 20.6059 14.111L20.5493 15.4924L20.4028 15.9474L20.5105 13.7399ZM20.424 16.0729L20.5744 15.6039L20.6409 15.7405C20.6455 15.7485 20.6532 15.7544 20.6621 15.7568H20.6671C20.6745 15.757 20.6817 15.7543 20.6872 15.7493L21.0031 15.451L21.0558 15.941C21.057 15.9469 21.0596 15.9523 21.0636 15.9567C21.0676 15.9612 21.0727 15.9644 21.0784 15.9661C21.0809 15.9674 21.0833 15.9674 21.0859 15.9674C21.0948 15.9674 21.1035 15.9637 21.1086 15.9561L21.2866 15.7319L21.4457 16.2395L21.1912 16.6157L21.0833 16.1056C21.0821 16.1001 21.0793 16.0951 21.0753 16.091C21.0713 16.087 21.0663 16.0842 21.0608 16.0829C21.0553 16.0818 21.0497 16.0821 21.0444 16.0838C21.0391 16.0856 21.0344 16.0888 21.0308 16.093L20.7963 16.3851L20.6998 16.0254C20.6982 16.0206 20.6955 16.0162 20.6918 16.0127C20.688 16.0092 20.6835 16.0067 20.6786 16.0054C20.6735 16.0041 20.6682 16.0041 20.6631 16.0054C20.6581 16.0067 20.6534 16.0093 20.6497 16.013L20.3665 16.2875L20.424 16.0833C20.4264 16.0793 20.424 16.0753 20.424 16.0729ZM20.2924 16.5415L20.4466 17.0855L20.2134 17.4314C20.1557 17.4202 20.0981 17.4076 20.0453 17.3948L20.2924 16.5415ZM19.6869 17.4453C19.6869 17.4416 19.697 17.3752 19.7635 17.3752C19.7849 17.3752 19.8085 17.3816 19.8374 17.3927C20.0078 17.4693 20.6196 17.5669 20.646 17.5707C20.8553 17.6033 21.0458 17.6184 21.2126 17.6184C21.3128 17.6184 21.3842 17.6134 21.4369 17.6096C21.4745 17.6057 21.5007 17.6045 21.5184 17.6057C21.5318 17.6073 21.5447 17.6119 21.5562 17.619C21.5677 17.6262 21.5774 17.6358 21.5847 17.6471C21.6023 17.6772 21.6023 17.7186 21.5835 17.7649C21.5723 17.7949 21.5069 17.8451 21.2036 17.8451C21.1084 17.8451 21.0133 17.8401 20.9406 17.8363C20.7101 17.8226 20.4354 17.7686 20.0882 17.6997L19.9867 17.6808C19.7949 17.6434 19.7235 17.5807 19.697 17.5343C19.6719 17.4891 19.6845 17.4528 19.6869 17.4453ZM19.484 17.4768C19.5266 17.429 19.593 17.4191 19.6343 17.4191C19.6331 17.4226 19.6318 17.4279 19.6305 17.4303C19.6292 17.4328 19.6069 17.4916 19.6444 17.5605C19.647 17.5632 19.6494 17.5642 19.6494 17.5667C19.6017 17.5832 19.5115 17.6219 19.4514 17.6946C19.4337 17.5971 19.4437 17.5231 19.484 17.4768ZM24.0214 17.5607C24.0589 17.4916 24.0366 17.4328 24.0338 17.4304C24.0336 17.4266 24.0327 17.4228 24.0311 17.4193C24.0714 17.4193 24.1391 17.4293 24.1813 17.4769C24.2214 17.5233 24.2313 17.5973 24.2139 17.6949C24.1539 17.6222 24.0639 17.5835 24.0161 17.5671C24.0166 17.5645 24.019 17.5632 24.0214 17.5607ZM24.2119 17.8451C24.2119 17.8576 24.2208 17.8688 24.2334 17.8726C24.31 17.8951 24.5129 17.9766 24.5129 18.0782C24.5129 18.0909 24.5356 18.285 24.3398 18.3841C24.3274 18.3916 24.3199 18.4077 24.3274 18.4229C24.3274 18.4255 24.3565 18.4907 24.3199 18.5582C24.2798 18.631 24.1794 18.6837 24.0265 18.7099C23.9289 18.7262 23.8423 18.7438 23.7595 18.7588C23.4751 18.8139 23.2267 18.8617 22.6843 18.8753C22.4006 18.8816 22.1168 18.8852 21.8331 18.8863C21.6074 18.8863 21.3091 18.8837 20.9807 18.8753C20.439 18.8615 20.1911 18.8136 19.9054 18.7588C19.8224 18.7438 19.7373 18.7275 19.6396 18.7099C19.4867 18.6835 19.3864 18.631 19.3462 18.5582C19.3354 18.5375 19.3291 18.5147 19.3278 18.4914C19.3265 18.468 19.3302 18.4447 19.3387 18.4229C19.3416 18.416 19.342 18.4083 19.3397 18.4012C19.3374 18.3941 19.3326 18.388 19.3263 18.3841C19.1305 18.285 19.1532 18.0909 19.1532 18.0782C19.1532 17.9768 19.355 17.8951 19.4327 17.8726C19.4453 17.87 19.4541 17.8576 19.4541 17.8451C19.4541 17.6922 19.6521 17.627 19.6898 17.6155C19.7473 17.6708 19.8427 17.712 19.9755 17.7385L20.0758 17.7585C20.4267 17.8262 20.7025 17.8814 20.9382 17.8938C21.0109 17.899 21.1075 17.9039 21.2038 17.9039C21.4695 17.9039 21.6074 17.8664 21.6389 17.7861C21.6451 17.7724 21.6477 17.7585 21.6514 17.7448H22.0151C22.0187 17.7585 22.0213 17.7722 22.0275 17.7861C22.0587 17.8664 22.1967 17.9026 22.4625 17.9026C22.5579 17.9026 22.6555 17.899 22.7282 17.8937C22.9626 17.8812 23.2397 17.8261 23.5904 17.7572L23.6906 17.7384C23.8236 17.712 23.919 17.6708 23.9765 17.6153C24.0139 17.627 24.2119 17.6922 24.2119 17.8451ZM23.8284 17.3926C23.8562 17.3801 23.8809 17.3737 23.9023 17.3737C23.9688 17.3737 23.9789 17.4415 23.9789 17.4451C23.9818 17.4527 23.9942 17.4888 23.9688 17.5342C23.9412 17.5805 23.8712 17.6418 23.678 17.6796L23.5778 17.6995C23.2291 17.7686 22.9551 17.8226 22.7255 17.8349C22.6379 17.8408 22.5502 17.8438 22.4625 17.8438C22.1595 17.8438 22.0938 17.7948 22.0811 17.7649C22.064 17.7184 22.064 17.6772 22.0811 17.6471C22.0884 17.6357 22.0981 17.6261 22.1096 17.6189C22.1211 17.6118 22.1341 17.6073 22.1475 17.6057C22.1641 17.6045 22.1913 17.6057 22.2293 17.6096C22.2821 17.6131 22.3532 17.6184 22.4534 17.6184C22.6203 17.6184 22.8105 17.6033 23.0189 17.5707C23.0462 17.5669 23.6579 17.4678 23.8284 17.3926ZM23.6205 17.3951C23.5677 17.4078 23.5104 17.4202 23.4522 17.4317L23.2191 17.0858L23.372 16.5419L23.6205 17.3951ZM23.3321 16.4011L23.3421 16.4337L23.1767 17.0215L22.941 16.6743C22.9361 16.6655 22.9235 16.6606 22.9132 16.6617C22.9078 16.6625 22.9027 16.6646 22.8984 16.6679C22.894 16.6712 22.8905 16.6756 22.8883 16.6806L22.7645 17.0441L22.5202 16.683L22.6282 16.178L22.8597 16.4663C22.8659 16.4751 22.8784 16.4787 22.8888 16.4773C22.8941 16.476 22.8989 16.4733 22.9029 16.4696C22.9069 16.4659 22.9099 16.4612 22.9116 16.456L23.0122 16.0889L23.3321 16.4011ZM24.6431 17.266L24.5274 17.162L24.316 12.2058L23.9787 12.4953L24.1644 16.8362L24.0115 16.7008L23.8355 12.6169L23.5764 12.8288L23.7231 16.4413L23.5701 16.306L23.442 12.9065L23.2189 12.9968C23.2162 12.9854 23.2079 12.9779 23.1927 12.9768C22.5147 13.0081 21.9307 12.6521 21.8327 12.5894C21.7349 12.6534 21.1508 13.0094 20.4726 12.9781C20.4563 12.9781 20.449 12.9856 20.4464 12.9969L20.2233 12.9079L20.0955 16.3062L19.9426 16.4415L20.0891 12.829L19.8298 12.6171L19.6542 16.701L19.5012 16.8376L19.6868 12.4968L19.3483 12.206L19.1379 17.1622L19.0225 17.2662L19.2368 12.1243L18.9046 12.286C18.9273 12.0327 19.0161 11.9187 19.0161 11.9187C19.02 11.915 19.3646 11.5401 19.9514 11.9324C20.3726 12.2131 20.761 12.2734 20.9729 12.2822C20.9302 12.3474 20.9029 12.3862 20.9004 12.3875C20.8966 12.3921 20.8946 12.3978 20.8946 12.4038C20.8946 12.4097 20.8966 12.4155 20.9004 12.4201C20.9053 12.4313 20.9178 12.4364 20.9291 12.4338C20.9417 12.4325 21.1936 12.3886 21.3491 12.2822L21.2939 12.4752C21.2925 12.4813 21.293 12.4876 21.2952 12.4934C21.2974 12.4992 21.3013 12.5042 21.3064 12.5078C21.3114 12.5108 21.317 12.5126 21.3228 12.5129C21.3291 12.5129 21.334 12.5104 21.3391 12.5065L21.6801 12.2608L21.8179 12.4563C21.8203 12.4602 21.8236 12.4633 21.8276 12.4655C21.8316 12.4677 21.836 12.4688 21.8406 12.4688C21.8494 12.4701 21.857 12.4663 21.8633 12.46L22.0362 12.2833C22.099 12.3309 22.2944 12.4663 22.4022 12.4776C22.4072 12.4776 22.4123 12.4776 22.4173 12.475C22.4222 12.4725 22.4348 12.465 22.4436 12.4437C22.4548 12.4137 22.4498 12.3697 22.4297 12.3133L22.7557 12.4161C22.7681 12.4199 22.7833 12.4135 22.7908 12.4011C22.7958 12.3884 22.7934 12.3721 22.7808 12.3635C22.7808 12.3635 22.7495 12.3384 22.7081 12.282C22.9238 12.2694 23.3036 12.2068 23.7133 11.931C24.2999 11.5387 24.6458 11.9147 24.6495 11.9183C24.6495 11.9183 24.7387 12.0324 24.7607 12.2857L24.4288 12.124L24.6431 17.266Z" fill="#BF920C"/>
  <path d="M20.2036 18.1497C20.151 18.1933 20.141 18.1733 20.141 18.1733C20.141 18.1733 20.1045 18.1971 20.1333 18.2209C20.1609 18.2447 20.1371 18.3123 20.1371 18.3123C20.1371 18.3123 20.1133 18.3374 20.0381 18.3048C19.9615 18.2735 20.0091 18.1907 20.0091 18.1907L20.043 18.0653C20.043 18.0653 20.0505 18.0202 19.9954 18.0717C19.9428 18.123 19.9428 18.1168 19.9253 18.1168C19.9078 18.1168 19.8952 18.1279 19.9165 18.1581C19.9379 18.1882 19.9128 18.2598 19.9128 18.2598C19.9128 18.2598 19.8513 18.271 19.8124 18.2334C19.7736 18.197 19.8665 18.0369 19.8665 18.0369L19.9165 17.8627C19.9165 17.8627 19.9253 17.8314 19.8989 17.8336C19.8989 17.8336 19.8 17.8788 19.7798 17.8724C19.7599 17.8662 19.6872 17.845 19.6897 17.8924C19.6923 17.94 19.7588 17.9338 19.7588 17.9338L19.8327 17.9026L19.7851 18.0929C19.7851 18.0929 19.6133 18.0755 19.6009 18.212C19.6009 18.212 19.5844 18.2622 19.6522 18.2772C19.7199 18.2922 20.1435 18.4026 20.1435 18.4026C20.1435 18.4026 20.1886 18.4152 20.2036 18.3576C20.2188 18.2986 20.2589 18.1607 20.2589 18.1607C20.2589 18.1607 20.2589 18.1069 20.2036 18.1497ZM19.7099 18.2384C19.6986 18.2383 19.6877 18.2338 19.6797 18.2258C19.6717 18.2178 19.6672 18.207 19.667 18.1957C19.6674 18.1846 19.6721 18.1741 19.6801 18.1663C19.6881 18.1586 19.6987 18.1542 19.7099 18.1541C19.7324 18.1541 19.7525 18.173 19.7525 18.1957C19.7524 18.207 19.7479 18.2178 19.7399 18.2257C19.7319 18.2337 19.7211 18.2382 19.7099 18.2384ZM22.8071 18.2999C22.7695 18.3576 22.7558 18.3427 22.7558 18.3427C22.7558 18.3427 22.7281 18.3766 22.762 18.3903C22.7959 18.4041 22.7946 18.4756 22.7946 18.4756C22.7946 18.4756 22.7809 18.5068 22.6981 18.5006C22.6148 18.4931 22.635 18.4004 22.635 18.4004L22.6287 18.2702C22.6287 18.2702 22.6196 18.2251 22.5851 18.2914C22.5498 18.3579 22.5477 18.3515 22.5324 18.3566C22.5151 18.3617 22.5075 18.3767 22.5372 18.398C22.5664 18.4205 22.5651 18.4971 22.5651 18.4971C22.5651 18.4971 22.5097 18.5258 22.4619 18.5033C22.4119 18.4806 22.4519 18.2991 22.4519 18.2991L22.4443 18.1172C22.4443 18.1172 22.4416 18.0859 22.4178 18.096C22.4178 18.096 22.3376 18.17 22.3164 18.17C22.2962 18.17 22.2198 18.1725 22.236 18.2163C22.2536 18.2614 22.3164 18.2337 22.3164 18.2337L22.3764 18.1826L22.3903 18.3782C22.3903 18.3782 22.2235 18.4157 22.2537 18.5487C22.2537 18.5487 22.2537 18.6011 22.3231 18.5936C22.3924 18.5873 22.8282 18.5597 22.8282 18.5597C22.8282 18.5597 22.8758 18.5571 22.8716 18.4971C22.8681 18.437 22.8616 18.294 22.8616 18.294C22.8616 18.294 22.8457 18.2424 22.8071 18.2999ZM22.3646 18.5392C22.3432 18.5468 22.3197 18.5343 22.3119 18.5118C22.3044 18.4905 22.317 18.4665 22.3397 18.459C22.3449 18.4572 22.3504 18.4565 22.3559 18.4569C22.3613 18.4572 22.3667 18.4587 22.3716 18.4611C22.3765 18.4636 22.3809 18.467 22.3845 18.4712C22.388 18.4753 22.3907 18.4802 22.3924 18.4854C22.3958 18.4962 22.3948 18.508 22.3896 18.5181C22.3844 18.5281 22.3754 18.5358 22.3646 18.5392Z" fill="#BF920C"/>
  <path d="M19.6696 18.0052C19.6696 18.029 19.6884 18.0479 19.7124 18.0479C19.7237 18.0478 19.7345 18.0433 19.7425 18.0353C19.7504 18.0273 19.755 18.0165 19.755 18.0052C19.7546 17.9941 19.75 17.9837 19.742 17.9759C19.7341 17.9682 19.7235 17.9639 19.7124 17.9638C19.7012 17.9637 19.6905 17.968 19.6825 17.9757C19.6744 17.9835 19.6698 17.9941 19.6696 18.0052ZM19.7587 18.3766C19.7587 18.3991 19.7399 18.4179 19.7161 18.4179C19.6922 18.4179 19.6747 18.3991 19.6747 18.3766C19.6747 18.3527 19.6921 18.3337 19.7161 18.3337C19.7217 18.3337 19.7273 18.3348 19.7325 18.3369C19.7377 18.339 19.7424 18.3422 19.7464 18.3462C19.7503 18.3502 19.7535 18.3549 19.7556 18.3601C19.7577 18.3653 19.7588 18.3709 19.7587 18.3766ZM19.7926 18.4064C19.7926 18.4177 19.7971 18.4286 19.8051 18.4366C19.8131 18.4446 19.8239 18.4491 19.8353 18.4491C19.8466 18.4491 19.8574 18.4446 19.8654 18.4366C19.8734 18.4286 19.8779 18.4177 19.8779 18.4064C19.8778 18.3952 19.8733 18.3844 19.8653 18.3764C19.8573 18.3684 19.8465 18.3639 19.8353 18.3638C19.824 18.3639 19.8132 18.3684 19.8052 18.3764C19.7973 18.3844 19.7927 18.3952 19.7926 18.4064ZM20.0708 18.4665C20.0707 18.4778 20.0661 18.4886 20.0582 18.4966C20.0502 18.5046 20.0394 18.5092 20.0281 18.5093C20.0225 18.5094 20.0169 18.5083 20.0117 18.5062C20.0065 18.504 20.0018 18.5009 19.9978 18.4969C19.9938 18.4929 19.9907 18.4882 19.9886 18.4829C19.9865 18.4777 19.9854 18.4721 19.9855 18.4665C19.9856 18.4552 19.9901 18.4445 19.9981 18.4365C20.0061 18.4285 20.0168 18.424 20.0281 18.4238C20.0507 18.4238 20.0708 18.444 20.0708 18.4665ZM20.9656 18.063C20.9092 18.1044 20.9006 18.1068 20.9006 18.1068C20.9006 18.1068 20.9006 18.1233 20.9206 18.1457C20.9407 18.1669 20.8755 18.5282 20.8755 18.5282C20.8755 18.5282 20.8255 18.5971 20.814 18.513C20.8028 18.4291 20.7726 18.4355 20.7726 18.4355C20.7726 18.4355 20.7226 18.4355 20.7226 18.4029C20.7226 18.3703 20.7751 18.369 20.7751 18.369C20.7751 18.369 20.8202 18.3853 20.8279 18.3427C20.8328 18.2989 20.7601 18.2425 20.7601 18.2425C20.7601 18.2425 20.7477 18.1322 20.6949 18.131C20.6436 18.1282 20.596 18.2147 20.596 18.2147C20.596 18.2147 20.4982 18.2086 20.4858 18.2562C20.4719 18.3038 20.5522 18.3289 20.5522 18.3289C20.5522 18.3289 20.5872 18.3601 20.5548 18.3789C20.5222 18.3989 20.4982 18.4002 20.4982 18.4002C20.4982 18.4002 20.4193 18.4077 20.4017 18.3526C20.3841 18.2987 20.3766 18.1083 20.3063 18.2711C20.3063 18.2711 20.3089 18.3211 20.3314 18.3601C20.3563 18.3989 20.2761 18.5066 20.2149 18.5004C20.1534 18.4942 20.1609 18.5454 20.2362 18.5419C20.3114 18.537 20.3428 18.5192 20.3614 18.4919C20.3816 18.463 20.4204 18.4593 20.4869 18.4683C20.5546 18.4771 20.5521 18.4897 20.5933 18.4469C20.6348 18.4032 20.6585 18.4719 20.6585 18.4719C20.6585 18.4719 20.6673 18.5069 20.7036 18.5069C20.7398 18.5069 20.755 18.5846 20.755 18.5846C20.755 18.5846 20.755 18.6448 20.8378 18.6448C20.9206 18.6448 20.9444 18.5432 20.9444 18.5432L21.0044 18.0845C21.0046 18.0841 21.0222 18.0215 20.9656 18.063ZM20.6574 18.3225C20.6463 18.3225 20.6356 18.3181 20.6277 18.3104C20.6197 18.3026 20.6151 18.2921 20.6147 18.281C20.6148 18.2697 20.6194 18.2589 20.6273 18.251C20.6353 18.243 20.6461 18.2385 20.6574 18.2383C20.6687 18.2385 20.6794 18.243 20.6874 18.251C20.6954 18.2589 20.6999 18.2697 20.7 18.281C20.6996 18.2921 20.695 18.3026 20.687 18.3103C20.6791 18.318 20.6685 18.3224 20.6574 18.3225ZM21.1161 18.0792C21.1588 18.1343 21.1663 18.1393 21.1663 18.1393C21.1663 18.1393 21.1625 18.1557 21.1374 18.1706C21.1136 18.1869 21.0898 18.4638 21.0898 18.4638C21.0898 18.4638 21.1123 18.5566 21.0733 18.5841C21.0068 18.6317 21.0132 18.5176 21.0132 18.5176L21.0733 18.0889C21.0735 18.0894 21.0735 18.0241 21.1161 18.0792ZM22.3118 18.3026C22.3118 18.3251 22.2919 18.3452 22.2692 18.3452C22.2465 18.3452 22.2265 18.3253 22.2265 18.3026C22.2265 18.2788 22.2465 18.2597 22.2692 18.2597C22.2919 18.2597 22.3118 18.2784 22.3118 18.3026ZM22.4386 18.6659C22.4386 18.677 22.4343 18.6877 22.4265 18.6957C22.4188 18.7037 22.4083 18.7084 22.3972 18.7088C22.3858 18.7087 22.375 18.7041 22.3669 18.6961C22.3589 18.6881 22.3543 18.6773 22.3542 18.6659C22.3542 18.6547 22.3586 18.644 22.3665 18.6361C22.3745 18.6282 22.3852 18.6237 22.3964 18.6237C22.4076 18.6237 22.4183 18.6282 22.4262 18.6361C22.4341 18.644 22.4386 18.6547 22.4386 18.6659ZM22.5539 18.6634C22.5538 18.6743 22.5494 18.6848 22.5416 18.6926C22.5338 18.7003 22.5233 18.7047 22.5124 18.7048C22.5012 18.7049 22.4905 18.7006 22.4825 18.6929C22.4744 18.6851 22.4698 18.6745 22.4696 18.6634C22.4696 18.6396 22.4883 18.6206 22.5124 18.6206C22.5351 18.6207 22.5539 18.6394 22.5539 18.6634ZM24.0317 18.4176C24.0313 18.4289 24.0267 18.4396 24.0187 18.4475C24.0107 18.4555 24 18.46 23.9887 18.4603C23.9774 18.4602 23.9666 18.4556 23.9587 18.4476C23.9507 18.4397 23.9461 18.4289 23.946 18.4176C23.946 18.3938 23.9644 18.375 23.9887 18.375C24 18.375 24.0108 18.3795 24.0189 18.3875C24.0269 18.3955 24.0315 18.4063 24.0317 18.4176ZM22.1428 18.39C22.1428 18.39 22.1366 18.3486 22.1064 18.3462C22.0763 18.3449 22.0536 18.3788 22.0536 18.3788C22.0536 18.3788 21.9306 18.4 21.936 18.4916C21.936 18.4916 21.8986 18.5542 21.8807 18.4716C21.8807 18.4716 21.9159 18.3925 21.8106 18.3925C21.7029 18.3925 21.5199 18.3753 21.5199 18.3753C21.5199 18.3753 21.4773 18.3689 21.4773 18.3288C21.4773 18.2899 21.4421 18.266 21.4121 18.2899C21.382 18.3136 21.397 18.3991 21.397 18.3991C21.397 18.3991 21.4071 18.4943 21.3593 18.4943C21.3117 18.4943 21.2893 18.3927 21.2893 18.3927C21.2893 18.3927 21.2692 18.3189 21.2278 18.3639C21.1864 18.409 21.1765 18.424 21.194 18.4379C21.2104 18.4505 21.2641 18.5218 21.243 18.567C21.2216 18.6134 21.1778 18.6648 21.1038 18.6648C21.0311 18.6648 21.0588 18.7036 21.1002 18.7036C21.1415 18.7036 21.2254 18.7212 21.2718 18.6648C21.3168 18.6084 21.3056 18.5846 21.3895 18.582C21.4749 18.5806 21.6503 18.602 21.6503 18.602C21.6503 18.602 21.678 18.5931 21.7018 18.6621C21.7254 18.7321 21.7783 18.7298 21.7783 18.7298C21.7783 18.7298 21.886 18.7187 21.886 18.6108L22.1541 18.5958L22.1428 18.39ZM21.808 18.5581C21.808 18.6447 21.7831 18.6258 21.7831 18.6258C21.7831 18.6258 21.7505 18.6132 21.7505 18.5669C21.7505 18.5218 21.713 18.5242 21.713 18.5242L21.5249 18.5154C21.5249 18.5154 21.4723 18.509 21.4723 18.4854C21.4723 18.4619 21.5073 18.4566 21.5073 18.4566C21.5073 18.4566 21.6628 18.4628 21.7494 18.4628C21.8357 18.463 21.808 18.5581 21.808 18.5581ZM22.0463 18.5405C22.0406 18.5406 22.035 18.5397 22.0297 18.5376C22.0245 18.5355 22.0197 18.5323 22.0157 18.5284C22.0117 18.5244 22.0086 18.5196 22.0064 18.5143C22.0043 18.5091 22.0033 18.5035 22.0035 18.4978C22.0035 18.4753 22.0209 18.4552 22.0463 18.4552C22.057 18.4561 22.0669 18.461 22.0741 18.4689C22.0814 18.4768 22.0854 18.4871 22.0854 18.4978C22.0854 18.5085 22.0814 18.5189 22.0741 18.5268C22.0669 18.5347 22.057 18.5396 22.0463 18.5405ZM24.1319 18.2498C24.1069 18.2035 24.0857 18.1759 24.0641 18.2061C24.0413 18.2361 23.9714 18.2749 23.9411 18.2387C23.911 18.2024 23.8645 17.9529 23.8645 17.9529C23.8645 17.9529 23.8308 17.8552 23.7006 17.8753C23.5704 17.894 23.6052 17.9405 23.6052 17.9405C23.6052 17.9405 23.6439 18.0119 23.6752 17.9771C23.7052 17.9418 23.7805 17.9343 23.7982 17.9983C23.8156 18.0635 23.8585 18.2666 23.8585 18.2666C23.8585 18.2666 23.8757 18.3042 23.826 18.3019C23.776 18.2994 23.7782 18.234 23.6918 18.2367C23.6053 18.2393 23.6116 18.332 23.6116 18.332C23.6116 18.332 23.6004 18.3519 23.575 18.3532C23.5488 18.3559 23.5224 18.3408 23.4858 18.2668C23.4492 18.1941 23.3693 18.2129 23.3693 18.2129C23.3693 18.2129 23.3393 18.0765 23.3217 18.075C23.3045 18.0725 23.2388 18.1402 23.2517 18.1615C23.2655 18.183 23.3133 18.2192 23.2891 18.2329C23.2655 18.2455 23.1715 18.2981 23.1813 18.4122C23.1813 18.4122 23.1785 18.436 23.1487 18.4296C23.1186 18.4234 23.1186 18.4144 23.1186 18.4144C23.1186 18.4144 23.1111 18.2991 23.0814 18.2991C23.0514 18.2991 22.9285 18.3404 22.9285 18.4382C22.9285 18.5347 23.0122 18.5247 23.0122 18.5247C23.0122 18.5247 23.0774 18.5221 23.0558 18.5586C23.033 18.5961 22.9507 18.5999 22.9507 18.6237C22.9507 18.6474 23.0033 18.6452 23.0335 18.6412C23.0637 18.6376 23.1376 18.5975 23.1376 18.5397C23.1376 18.4807 23.2564 18.4897 23.2564 18.4897C23.2564 18.4897 23.3604 18.4421 23.3604 18.5247C23.3604 18.6062 23.4842 18.5811 23.4842 18.5811C23.4842 18.5811 23.5719 18.5523 23.5617 18.4533C23.5617 18.4533 23.5517 18.4382 23.5819 18.4318C23.613 18.4243 23.6745 18.4619 23.6745 18.4619C23.6745 18.4619 23.7672 18.4895 23.7949 18.4203C23.8225 18.3513 23.8903 18.3513 23.8903 18.3513L24.1109 18.2975C24.1119 18.2973 24.1545 18.2947 24.1319 18.2498ZM23.0301 18.4665C23.0246 18.4665 23.0191 18.4654 23.014 18.4632C23.0089 18.461 23.0043 18.4579 23.0004 18.4539C22.9966 18.4499 22.9935 18.4452 22.9915 18.4401C22.9895 18.4349 22.9886 18.4294 22.9887 18.4238C22.9887 18.4012 23.0061 18.381 23.0301 18.381C23.0541 18.381 23.0715 18.401 23.0715 18.4238C23.0717 18.4294 23.0708 18.4349 23.0688 18.4401C23.0668 18.4453 23.0637 18.45 23.0599 18.454C23.056 18.458 23.0514 18.4611 23.0463 18.4633C23.0412 18.4654 23.0357 18.4665 23.0301 18.4665ZM23.2896 18.4052C23.2785 18.4051 23.2679 18.4008 23.2599 18.3931C23.252 18.3854 23.2473 18.3748 23.2469 18.3638C23.247 18.3525 23.2515 18.3416 23.2595 18.3336C23.2675 18.3256 23.2783 18.3211 23.2896 18.3209C23.3134 18.3209 23.3324 18.3398 23.3324 18.3638C23.3322 18.3749 23.3276 18.3856 23.3196 18.3933C23.3115 18.4011 23.3008 18.4053 23.2896 18.4052ZM23.3722 18.34C23.3722 18.3163 23.3925 18.2973 23.415 18.2973C23.4262 18.2973 23.4369 18.3017 23.4448 18.3096C23.4527 18.3175 23.4571 18.3282 23.4571 18.3394C23.4571 18.3506 23.4527 18.3613 23.4448 18.3692C23.4369 18.3771 23.4262 18.3815 23.415 18.3815C23.3925 18.3813 23.3722 18.3627 23.3722 18.34ZM23.4625 18.5204C23.4512 18.5203 23.4404 18.5158 23.4324 18.5078C23.4244 18.4998 23.4198 18.489 23.4197 18.4777C23.4201 18.4666 23.4248 18.4561 23.4328 18.4484C23.4408 18.4407 23.4514 18.4364 23.4625 18.4363C23.4861 18.4363 23.5053 18.4552 23.5053 18.4777C23.5054 18.4833 23.5043 18.4889 23.5021 18.4941C23.5 18.4993 23.4968 18.504 23.4929 18.508C23.4889 18.512 23.4841 18.5151 23.4789 18.5172C23.4737 18.5194 23.4681 18.5204 23.4625 18.5204ZM23.7121 18.3976C23.7008 18.3976 23.6899 18.3931 23.6819 18.3851C23.6739 18.3771 23.6693 18.3663 23.6691 18.355C23.6691 18.3312 23.6878 18.3122 23.7121 18.3122C23.7176 18.3122 23.7231 18.3133 23.7282 18.3155C23.7333 18.3177 23.738 18.3208 23.7418 18.3248C23.7457 18.3288 23.7487 18.3335 23.7507 18.3387C23.7527 18.3439 23.7536 18.3494 23.7535 18.355C23.7536 18.3661 23.7493 18.3768 23.7416 18.3848C23.7338 18.3928 23.7232 18.3974 23.7121 18.3976Z" fill="#BF920C"/>
</svg>