<svg xmlns="http://www.w3.org/2000/svg" width="16" height="13" viewBox="0 0 16 13" fill="none">
  <path d="M10.3676 6.74048L9.0276 8.18146C8.4842 8.76588 7.52807 8.77847 6.97292 8.18146L5.63282 6.74048L0.819824 11.9154C0.99898 12.0042 1.19651 12.0571 1.40651 12.0571H14.594C14.804 12.0571 15.0015 12.0042 15.1806 11.9154L10.3676 6.74048Z" fill="#666666"/>
  <path d="M14.5938 0H1.40625C1.19625 0 0.998719 0.0529828 0.819625 0.141767L5.96266 5.6719C5.963 5.67227 5.96341 5.67234 5.96375 5.67271C5.96396 5.67295 5.9641 5.67325 5.96416 5.67358L7.63644 7.47171C7.81406 7.66207 8.186 7.66207 8.36362 7.47171L10.0356 5.67388C10.0356 5.67388 10.036 5.67307 10.0363 5.67271C10.0363 5.67271 10.0371 5.67227 10.0374 5.6719L15.1803 0.141734C15.0012 0.0529159 14.8038 0 14.5938 0ZM0.149562 0.844375C0.056875 1.04525 0 1.26824 0 1.50709V10.5497C0 10.7885 0.0568125 11.0115 0.149531 11.2124L4.97087 6.02855L0.149562 0.844375ZM15.8504 0.844308L11.0292 6.02855L15.8504 11.2125C15.9431 11.0116 16 10.7886 16 10.5497V1.50709C16 1.26817 15.9431 1.04519 15.8504 0.844308Z" fill="#666666"/>
</svg>