<svg xmlns="http://www.w3.org/2000/svg" width="42" height="42" viewBox="0 0 42 42" fill="none">
  <path fill-rule="evenodd" clip-rule="evenodd" d="M0 21C0 9.40202 9.40202 0 21 0C32.598 0 42 9.40202 42 21C42 32.598 32.598 42 21 42C9.40202 42 0 32.598 0 21Z" fill="#3B5998"/>
  <path d="M22.5654 32.8125V22.6338H25.6612L26.1254 18.667H22.5654V16.1343C22.5654 14.9859 22.8544 14.2032 24.3467 14.2032H26.25V10.6562C25.3288 10.5487 24.4029 10.4966 23.4765 10.5002C20.7323 10.5002 18.8536 12.3487 18.8536 15.7437V18.667H15.75V22.6338H18.8536V32.8125H22.5654Z" fill="white"/>
</svg>