<svg xmlns="http://www.w3.org/2000/svg" width="42" height="42" viewBox="0 0 42 42" fill="none">
  <path fill-rule="evenodd" clip-rule="evenodd" d="M0 21C0 9.40202 9.40202 0 21 0C32.598 0 42 9.40202 42 21C42 32.598 32.598 42 21 42C9.40202 42 0 32.598 0 21Z" fill="#007AB9"/>
  <path fill-rule="evenodd" clip-rule="evenodd" d="M21.0038 9.80029C17.962 9.80029 17.5803 9.81359 16.3856 9.86796C15.1933 9.92256 14.3794 10.1113 13.6672 10.3883C12.9306 10.6744 12.3057 11.057 11.6832 11.6798C11.0602 12.3024 10.6775 12.9272 10.3905 13.6636C10.1128 14.376 9.92384 15.1901 9.87017 16.382C9.81673 17.5767 9.80273 17.9586 9.80273 21.0004C9.80273 24.0422 9.81627 24.4227 9.8704 25.6174C9.92524 26.8098 10.114 27.6236 10.3907 28.3358C10.677 29.0724 11.0597 29.6973 11.6825 30.3198C12.3048 30.9428 12.9297 31.3265 13.6658 31.6125C14.3784 31.8895 15.1926 32.0783 16.3847 32.1329C17.5793 32.1872 17.9609 32.2005 21.0024 32.2005C24.0444 32.2005 24.425 32.1872 25.6196 32.1329C26.812 32.0783 27.6268 31.8895 28.3394 31.6125C29.0758 31.3265 29.6997 30.9428 30.322 30.3198C30.9451 29.6973 31.3277 29.0724 31.6147 28.336C31.8901 27.6236 32.0791 26.8095 32.1351 25.6177C32.1887 24.423 32.2027 24.0422 32.2027 21.0004C32.2027 17.9586 32.1887 17.5769 32.1351 16.3822C32.0791 15.1899 31.8901 14.376 31.6147 13.6639C31.3277 12.9272 30.9451 12.3024 30.322 11.6798C29.699 11.0568 29.076 10.6741 28.3387 10.3883C27.6247 10.1113 26.8103 9.92256 25.618 9.86796C24.4233 9.81359 24.043 9.80029 21.0003 9.80029H21.0038ZM19.999 11.8186C20.2972 11.8181 20.6299 11.8186 21.0037 11.8186C23.9942 11.8186 24.3486 11.8293 25.5295 11.883C26.6215 11.933 27.2142 12.1154 27.609 12.2687C28.1317 12.4717 28.5043 12.7144 28.8961 13.1064C29.2881 13.4984 29.5308 13.8717 29.7342 14.3944C29.8875 14.7887 30.0702 15.3814 30.1199 16.4734C30.1736 17.6541 30.1853 18.0088 30.1853 20.9978C30.1853 23.9868 30.1736 24.3415 30.1199 25.5222C30.07 26.6142 29.8875 27.2069 29.7342 27.6012C29.5312 28.1239 29.2881 28.4961 28.8961 28.8878C28.5041 29.2798 28.1319 29.5225 27.609 29.7255C27.2147 29.8795 26.6215 30.0615 25.5295 30.1114C24.3488 30.1651 23.9942 30.1768 21.0037 30.1768C18.0131 30.1768 17.6586 30.1651 16.478 30.1114C15.3859 30.061 14.7933 29.8786 14.3982 29.7253C13.8756 29.5223 13.5022 29.2796 13.1102 28.8876C12.7182 28.4956 12.4755 28.1232 12.2721 27.6003C12.1188 27.2059 11.9361 26.6133 11.8864 25.5213C11.8327 24.3406 11.822 23.9859 11.822 20.995C11.822 18.0041 11.8327 17.6513 11.8864 16.4706C11.9363 15.3786 12.1188 14.7859 12.2721 14.3911C12.4751 13.8685 12.7182 13.4951 13.1102 13.1031C13.5022 12.7111 13.8756 12.4685 14.3982 12.265C14.793 12.111 15.3859 11.929 16.478 11.8788C17.5112 11.8321 17.9116 11.8181 19.999 11.8158V11.8186ZM26.9823 13.6783C26.2403 13.6783 25.6383 14.2796 25.6383 15.0219C25.6383 15.7639 26.2403 16.3659 26.9823 16.3659C27.7243 16.3659 28.3263 15.7639 28.3263 15.0219C28.3263 14.2798 27.7243 13.6783 26.9823 13.6783ZM21.0038 15.2487C17.8274 15.2487 15.2521 17.824 15.2521 21.0004C15.2521 24.1768 17.8274 26.7509 21.0038 26.7509C24.1802 26.7509 26.7546 24.1768 26.7546 21.0004C26.7546 17.824 24.1802 15.2487 21.0038 15.2487ZM21.0038 17.267C23.0655 17.267 24.7371 18.9384 24.7371 21.0004C24.7371 23.0621 23.0655 24.7338 21.0038 24.7338C18.9418 24.7338 17.2704 23.0621 17.2704 21.0004C17.2704 18.9384 18.9418 17.267 21.0038 17.267Z" fill="white"/>
</svg>