<svg xmlns="http://www.w3.org/2000/svg" width="58" height="58" viewBox="0 0 58 58" fill="none">
  <path fill-rule="evenodd" clip-rule="evenodd" d="M28.8027 0C20.981 0 19.9994 0.0342004 16.9274 0.174002C13.8613 0.314403 11.7685 0.799808 9.9373 1.51202C8.04308 2.24762 6.43627 3.23163 4.83545 4.83305C3.23343 6.43387 2.24942 8.04068 1.51142 9.9343C0.797408 11.7661 0.311403 13.8595 0.173402 16.9244C0.0360004 19.9964 0 20.9786 0 28.8003C0 36.622 0.0348004 37.6006 0.174002 40.6726C0.315003 43.7387 0.800408 45.8315 1.51202 47.6627C2.24822 49.5569 3.23223 51.1637 4.83365 52.7645C6.43387 54.3666 8.04068 55.353 9.9337 56.0886C11.7661 56.8008 13.8595 57.2862 16.925 57.4266C19.997 57.5664 20.978 57.6006 28.7991 57.6006C36.6214 57.6006 37.6 57.5664 40.672 57.4266C43.7381 57.2862 45.8333 56.8008 47.6657 56.0886C49.5593 55.353 51.1637 54.3666 52.764 52.7645C54.366 51.1637 55.35 49.5569 56.088 47.6633C56.796 45.8315 57.282 43.7381 57.426 40.6732C57.564 37.6012 57.6 36.622 57.6 28.8003C57.6 20.9786 57.564 19.997 57.426 16.925C57.282 13.8589 56.796 11.7661 56.088 9.9349C55.35 8.04068 54.366 6.43387 52.764 4.83305C51.1619 3.23103 49.5599 2.24702 47.6639 1.51202C45.8279 0.799808 43.7339 0.314403 40.6678 0.174002C37.5958 0.0342004 36.6178 0 28.7937 0H28.8027ZM26.2189 5.18997C26.9858 5.18877 27.8414 5.18997 28.8026 5.18997C36.4923 5.18997 37.4037 5.21757 40.4403 5.35558C43.2483 5.48398 44.7723 5.95318 45.7876 6.34739C47.1316 6.86939 48.0898 7.4934 49.0972 8.50141C50.1052 9.50942 50.7292 10.4694 51.2524 11.8134C51.6466 12.8275 52.1164 14.3515 52.2442 17.1595C52.3822 20.1955 52.4122 21.1075 52.4122 28.7936C52.4122 36.4797 52.3822 37.3917 52.2442 40.4277C52.1158 43.2358 51.6466 44.7598 51.2524 45.7738C50.7304 47.1178 50.1052 48.0748 49.0972 49.0822C48.0892 50.0902 47.1322 50.7143 45.7876 51.2363C44.7735 51.6323 43.2483 52.1003 40.4403 52.2287C37.4043 52.3667 36.4923 52.3967 28.8026 52.3967C21.1123 52.3967 20.2009 52.3667 17.1649 52.2287C14.3568 52.0991 12.8328 51.6299 11.817 51.2357C10.473 50.7136 9.51298 50.0896 8.50497 49.0816C7.49695 48.0736 6.87295 47.116 6.34974 45.7714C5.95554 44.7574 5.48573 43.2334 5.35793 40.4253C5.21993 37.3893 5.19233 36.4773 5.19233 28.7864C5.19233 21.0955 5.21993 20.1883 5.35793 17.1523C5.48633 14.3443 5.95554 12.8203 6.34974 11.805C6.87175 10.461 7.49695 9.50102 8.50497 8.49301C9.51298 7.485 10.473 6.86099 11.817 6.33779C12.8322 5.94178 14.3568 5.47378 17.1649 5.34477C19.8217 5.22477 20.8513 5.18877 26.2189 5.18277V5.18997ZM44.176 9.97204C42.2679 9.97204 40.7199 11.5183 40.7199 13.4269C40.7199 15.3349 42.2679 16.8829 44.176 16.8829C46.084 16.8829 47.632 15.3349 47.632 13.4269C47.632 11.5189 46.084 9.97204 44.176 9.97204ZM28.8027 14.0101C20.6349 14.0101 14.0126 20.6323 14.0126 28.8002C14.0126 36.9681 20.6349 43.5874 28.8027 43.5874C36.9706 43.5874 43.5905 36.9681 43.5905 28.8002C43.5905 20.6323 36.9706 14.0101 28.8027 14.0101ZM28.8026 19.2001C34.1043 19.2001 38.4027 23.498 38.4027 28.8002C38.4027 34.1019 34.1043 38.4003 28.8026 38.4003C23.5004 38.4003 19.2025 34.1019 19.2025 28.8002C19.2025 23.498 23.5004 19.2001 28.8026 19.2001Z" fill="white"/>
</svg>