<svg xmlns="http://www.w3.org/2000/svg" width="43" height="43" viewBox="0 0 43 43" fill="none">
  <path d="M9.76115 42.0675V14.3104H0.543329V42.0675H9.76212H9.76115ZM5.15417 10.5213C8.36794 10.5213 10.3687 8.38988 10.3687 5.72622C10.3086 3.00186 8.36794 0.929932 5.21529 0.929932C2.06046 0.929932 0 3.00186 0 5.72598C0 8.38964 2.00007 10.5211 5.09377 10.5211H5.15345L5.15417 10.5213ZM14.8633 42.0675H24.0805V26.5683C24.0805 25.7398 24.1406 24.9092 24.3841 24.3175C25.0502 22.6593 26.5668 20.9428 29.1138 20.9428C32.4484 20.9428 33.7831 23.488 33.7831 27.2198V42.0675H43V26.1524C43 17.627 38.4532 13.6597 32.3887 13.6597C27.4167 13.6597 25.233 16.4411 24.0198 18.3355H24.0812V14.3114H14.8638C14.9841 16.9153 14.8631 42.0684 14.8631 42.0684L14.8633 42.0675Z" fill="white"/>
</svg>