<svg xmlns="http://www.w3.org/2000/svg" width="14" height="17" viewBox="0 0 14 17" fill="none">
  <path d="M7 0C4.68412 0 2.8 2.01081 2.8 4.48242C2.8 6.95403 4.68412 8.96484 7 8.96484C9.31588 8.96484 11.2 6.95403 11.2 4.48242C11.2 2.01081 9.31588 0 7 0ZM12.2256 11.8932C11.0757 10.6471 9.55139 9.96094 7.93333 9.96094H6.06667C4.44864 9.96094 2.92426 10.6471 1.77439 11.8932C0.630156 13.1331 0 14.7698 0 16.502C0 16.777 0.208942 17 0.466667 17H13.5333C13.7911 17 14 16.777 14 16.502C14 14.7698 13.3698 13.1331 12.2256 11.8932Z" fill="#666666"/>
</svg>