<svg xmlns="http://www.w3.org/2000/svg" width="15" height="17" viewBox="0 0 15 17" fill="none">
  <path d="M14.6748 12.2634C14.2066 11.8426 11.4605 9.97898 11.0041 10.0645C10.7898 10.1053 10.6259 10.3011 10.1871 10.862C9.98424 11.1381 9.76141 11.3967 9.52071 11.6353C9.07971 11.5212 8.65282 11.3516 8.24893 11.1301C6.66497 10.3036 5.38534 8.93185 4.61464 7.23406C4.40798 6.8012 4.24975 6.3437 4.14321 5.87107C4.36593 5.61311 4.6072 5.3743 4.86482 5.15685C5.38768 4.68664 5.57089 4.5121 5.60893 4.2813C5.68875 3.79099 3.94821 0.84914 3.55714 0.34735C3.39321 0.139514 3.24429 0 3.05357 0C2.50071 0 0 3.31389 0 3.74334C0 3.77836 0.0535714 7.22832 4.11911 11.6612C8.25536 16.0183 11.4745 16.0757 11.5071 16.0757C11.9079 16.0757 15 13.3956 15 12.8031C15 12.5987 14.8698 12.4391 14.6748 12.2634ZM11.25 7.46371H12.3214C12.3202 6.24598 11.8682 5.07851 11.0648 4.21744C10.2613 3.35637 9.17196 2.87203 8.03571 2.87066V4.01892C8.88793 4.01983 9.70501 4.38306 10.3076 5.02888C10.9102 5.67471 11.2491 6.55037 11.25 7.46371Z" fill="#666666"/>
  <path d="M13.9285 7.46371H14.9999C14.9978 5.48491 14.2634 3.58781 12.9578 2.18859C11.6522 0.789364 9.88204 0.00227929 8.03564 0V1.14826C9.59796 1.15024 11.0958 1.81625 12.2005 3.0002C13.3052 4.18414 13.9267 5.78935 13.9285 7.46371Z" fill="#666666"/>
</svg>