<svg xmlns="http://www.w3.org/2000/svg" width="48" height="40" viewBox="0 0 48 40" fill="none">
  <path fill-rule="evenodd" clip-rule="evenodd" d="M23.3067 10.6406L23.4108 12.3707L21.6767 12.1589C15.3644 11.3468 9.84987 8.59274 5.16771 3.96733L2.87866 1.67229L2.28905 3.36709C1.04048 7.14509 1.83818 11.1349 4.43938 13.8184C5.82668 15.3013 5.51454 15.5132 3.12144 14.6305C2.28905 14.348 1.56072 14.1362 1.49135 14.2421C1.24858 14.4892 2.08096 17.7023 2.73993 18.9734C3.64168 20.7388 5.47986 22.4689 7.49145 23.4929L9.1909 24.305L7.17931 24.3403C5.23708 24.3403 5.16771 24.3756 5.37581 25.1171C6.06946 27.4121 8.80939 29.8484 11.8615 30.9077L14.0118 31.6491L12.1389 32.779C9.36432 34.4032 6.10415 35.3212 2.84398 35.3918C1.28326 35.4271 0 35.5684 0 35.6743C0 36.0274 4.23128 38.0047 6.69375 38.7814C14.0812 41.0765 22.8559 40.0879 29.4456 36.1686C34.1277 33.3792 38.8099 27.8358 40.9949 22.4689C42.1741 19.609 43.3533 14.3833 43.3533 11.8764C43.3533 10.2522 43.4574 10.0404 45.3996 8.09842C46.5441 6.96855 47.6193 5.73276 47.8274 5.37967C48.1742 4.70881 48.1395 4.70881 46.3707 5.30905C43.4227 6.36831 43.0065 6.22707 44.4632 4.63819C45.5383 3.50832 46.8216 1.46044 46.8216 0.860193C46.8216 0.754267 46.3013 0.93081 45.7117 1.24859C45.0874 1.60167 43.7001 2.1313 42.6597 2.44907L40.7868 3.04931L39.0873 1.88414C38.1509 1.24859 36.833 0.542417 36.1393 0.330566C34.3705 -0.163752 31.6653 -0.0931348 30.0699 0.4718C25.7345 2.06068 22.9946 6.15646 23.3067 10.6406Z" fill="white"/>
</svg>