<svg xmlns="http://www.w3.org/2000/svg" width="42" height="42" viewBox="0 0 42 42" fill="none">
  <path fill-rule="evenodd" clip-rule="evenodd" d="M0 21C0 9.40202 9.40202 0 21 0C32.598 0 42 9.40202 42 21C42 32.598 32.598 42 21 42C9.40202 42 0 32.598 0 21Z" fill="#55ACEE"/>
  <path fill-rule="evenodd" clip-rule="evenodd" d="M20.371 17.0686L20.4151 17.7952L19.6807 17.7063C17.0073 17.3652 14.6717 16.2085 12.6887 14.2659L11.7192 13.302L11.4695 14.0138C10.9407 15.6005 11.2785 17.2762 12.3802 18.4032C12.9678 19.0261 12.8356 19.115 11.822 18.7443C11.4695 18.6257 11.161 18.5367 11.1316 18.5812C11.0288 18.685 11.3813 20.0345 11.6604 20.5683C12.0424 21.3098 12.8209 22.0364 13.6728 22.4665L14.3926 22.8075L13.5406 22.8224C12.718 22.8224 12.6887 22.8372 12.7768 23.1486C13.0706 24.1125 14.231 25.1357 15.5237 25.5806L16.4344 25.892L15.6412 26.3666C14.466 27.0487 13.0853 27.4343 11.7045 27.464C11.0435 27.4788 10.5 27.5381 10.5 27.5826C10.5 27.7309 12.2921 28.5613 13.335 28.8876C16.4638 29.8515 20.1801 29.4363 22.971 27.7902C24.954 26.6187 26.9371 24.2905 27.8625 22.0364C28.3619 20.8352 28.8613 18.6405 28.8613 17.5876C28.8613 16.9055 28.9054 16.8165 29.728 16.0009C30.2127 15.5264 30.6681 15.0073 30.7562 14.859C30.9031 14.5773 30.8884 14.5773 30.1393 14.8294C28.8907 15.2743 28.7144 15.2149 29.3314 14.5476C29.7867 14.0731 30.3302 13.213 30.3302 12.9609C30.3302 12.9164 30.1099 12.9905 29.8602 13.124C29.5958 13.2723 29.0082 13.4947 28.5675 13.6282L27.7743 13.8803L27.0546 13.3909C26.658 13.124 26.0998 12.8274 25.806 12.7384C25.0569 12.5308 23.9111 12.5605 23.2354 12.7978C21.3993 13.4651 20.2388 15.1853 20.371 17.0686Z" fill="white"/>
</svg>