<svg xmlns="http://www.w3.org/2000/svg" width="18" height="18" viewBox="0 0 18 18" fill="none">
  <path d="M4.5175 16.4044C5.81363 17.124 7.27189 17.5011 8.75438 17.5C13.5856 17.5 17.5 13.5769 17.5 8.74562C17.5 3.91438 13.5856 0 8.75438 0C3.92313 0 0 3.91438 0 8.74562C0 10.2994 0.4075 11.7431 1.1125 13.0081L0 17.5L4.5175 16.4044ZM5.00125 4.8825C5.10316 4.78714 5.22672 4.71797 5.36129 4.68095C5.49586 4.64393 5.63741 4.64018 5.77375 4.67L6.05438 4.72938C6.33438 4.78875 6.56375 4.97563 6.67375 5.23063L7.22563 6.45312C7.29258 6.60016 7.31541 6.76348 7.29134 6.92325C7.26726 7.08301 7.19732 7.23235 7.09 7.35313L6.75062 7.7525C6.69538 7.81738 6.66095 7.89738 6.65181 7.9821C6.64267 8.06682 6.65924 8.15233 6.69938 8.2275C7.70125 10.0275 9.0175 10.6138 9.60312 10.7919C9.68751 10.8191 9.77861 10.8173 9.8618 10.7866C9.945 10.7558 10.0155 10.6981 10.0619 10.6225L10.3081 10.24C10.5456 9.875 11.0131 9.7475 11.5306 10.0025L12.5494 10.5119C12.9406 10.6988 13.1181 11.1569 12.9744 11.565C12.4563 13.0675 11.1319 12.8806 11.1319 12.8806C8.19438 12.8044 5.8925 10.0956 4.89937 8.70312C4.44062 8.04938 4.16062 7.25937 4.24563 6.45312C4.33063 5.655 4.70375 5.15375 5.00125 4.8825Z" fill="#666666"/>
</svg>