<svg xmlns="http://www.w3.org/2000/svg" width="62" height="44" viewBox="0 0 62 44" fill="none">
  <path fill-rule="evenodd" clip-rule="evenodd" d="M55.2226 1.31361C57.8904 2.03642 59.9913 4.16616 60.7043 6.87074C62 11.7725 62 22 62 22C62 22 62 32.2272 60.7043 37.1293C59.9913 39.8338 57.8904 41.9636 55.2226 42.6867C50.388 44 31 44 31 44C31 44 11.612 44 6.77702 42.6867C4.10926 41.9636 2.00831 39.8338 1.29531 37.1293C0 32.2272 0 22 0 22C0 22 0 11.7725 1.29531 6.87074C2.00831 4.16616 4.10926 2.03642 6.77702 1.31361C11.612 0 31 0 31 0C31 0 50.388 0 55.2226 1.31361ZM25.1876 13.3911V32.5215L40.6876 22.9567L25.1876 13.3911Z" fill="white"/>
</svg>