<svg xmlns="http://www.w3.org/2000/svg" width="42" height="42" viewBox="0 0 42 42" fill="none">
  <path fill-rule="evenodd" clip-rule="evenodd" d="M0 21C0 9.40202 9.40202 0 21 0C32.598 0 42 9.40202 42 21C42 32.598 32.598 42 21 42C9.40202 42 0 32.598 0 21Z" fill="#DD4B39"/>
  <path fill-rule="evenodd" clip-rule="evenodd" d="M29.7541 13.78C30.718 14.0445 31.477 14.8238 31.7346 15.8134C32.2027 17.607 32.2027 21.3493 32.2027 21.3493C32.2027 21.3493 32.2027 25.0915 31.7346 26.8852C31.477 27.8749 30.718 28.6542 29.7541 28.9188C28.0074 29.3993 21.0027 29.3993 21.0027 29.3993C21.0027 29.3993 13.998 29.3993 12.2512 28.9188C11.2874 28.6542 10.5283 27.8749 10.2707 26.8852C9.80273 25.0915 9.80273 21.3493 9.80273 21.3493C9.80273 21.3493 9.80273 17.607 10.2707 15.8134C10.5283 14.8238 11.2874 14.0445 12.2512 13.78C13.998 13.2993 21.0027 13.2993 21.0027 13.2993C21.0027 13.2993 28.0074 13.2993 29.7541 13.78ZM18.9028 18.1992V25.1992L24.5028 21.6994L18.9028 18.1992Z" fill="white"/>
</svg>